HIERARCHY
ROOT joint_Root
{
	OFFSET 0.0 0.0 0.0
	CHANNELS 6 Xposition Yposition Zposition Zrotation Xrotation Yrotation 
	JOINT Hips
	{
		OFFSET 4.5925 91.4895 -427.239
		CHANNELS 6 Xposition Yposition Zposition Zrotation Xrotation Yrotation 
		JOINT Spine
		{
			OFFSET 15.7357 0.0 0.0
			CHANNELS 6 Xposition Yposition Zposition Zrotation Xrotation Yrotation 
			JOINT Chest
			{
				OFFSET 8.98455 -0.406207 0.0
				CHANNELS 6 Xposition Yposition Zposition Zrotation Xrotation Yrotation 
				JOINT Neck
				{
					OFFSET 16.3773 0.0 0.0
					CHANNELS 6 Xposition Yposition Zposition Zrotation Xrotation Yrotation 
					JOINT Head
					{
						OFFSET 6.45672 0.0 0.0
						CHANNELS 6 Xposition Yposition Zposition Zrotation Xrotation Yrotation 
						End Site
						{
							OFFSET 0.0 0.0 0.0
						}
					}
				}
				JOINT Shoulder_L
				{
					OFFSET 12.9942 -0.242716 4.98039
					CHANNELS 6 Xposition Yposition Zposition Zrotation Xrotation Yrotation 
					JOINT UpperArm_L
					{
						OFFSET 5.34809 0.0 0.0
						CHANNELS 6 Xposition Yposition Zposition Zrotation Xrotation Yrotation 
						JOINT LowerArm_L
						{
							OFFSET 24.3286 1.87007e-05 0.0
							CHANNELS 6 Xposition Yposition Zposition Zrotation Xrotation Yrotation 
							JOINT Hand_L
							{
								OFFSET 22.2916 0.0 0.0
								CHANNELS 6 Xposition Yposition Zposition Zrotation Xrotation Yrotation 
								End Site
								{
									OFFSET 0.0 0.0 0.0
								}
							}
						}
					}
				}
				JOINT Shoulder_R
				{
					OFFSET 12.9945 -0.242716 -4.98039
					CHANNELS 6 Xposition Yposition Zposition Zrotation Xrotation Yrotation 
					JOINT UpperArm_R
					{
						OFFSET -5.34813 0.0 0.0
						CHANNELS 6 Xposition Yposition Zposition Zrotation Xrotation Yrotation 
						JOINT LowerArm_R
						{
							OFFSET -24.3289 0.000322201 0.0
							CHANNELS 6 Xposition Yposition Zposition Zrotation Xrotation Yrotation 
							JOINT Hand_R
							{
								OFFSET -22.2915 -0.000108084 0.0
								CHANNELS 6 Xposition Yposition Zposition Zrotation Xrotation Yrotation 
								End Site
								{
									OFFSET 0.0 0.0 0.0
								}
							}
						}
					}
				}
			}
		}
		JOINT UpperLeg_L
		{
			OFFSET -2.19248 -6.46944 0.0
			CHANNELS 6 Xposition Yposition Zposition Zrotation Xrotation Yrotation 
			JOINT LowerLeg_L
			{
				OFFSET 39.0811 0.0 -1.23785e-05
				CHANNELS 6 Xposition Yposition Zposition Zrotation Xrotation Yrotation 
				JOINT Foot_L
				{
					OFFSET 40.9854 0.0 -1.26872e-05
					CHANNELS 6 Xposition Yposition Zposition Zrotation Xrotation Yrotation 
					JOINT Toes_L
					{
						OFFSET 11.7543 0.0 0.0
						CHANNELS 6 Xposition Yposition Zposition Zrotation Xrotation Yrotation 
						End Site
						{
							OFFSET 0.0 0.0 0.0
						}
					}
				}
			}
		}
		JOINT UpperLeg_R
		{
			OFFSET -2.19251 6.46944 0.0
			CHANNELS 6 Xposition Yposition Zposition Zrotation Xrotation Yrotation 
			JOINT LowerLeg_R
			{
				OFFSET -39.0811 -0.00228153 -0.0401928
				CHANNELS 6 Xposition Yposition Zposition Zrotation Xrotation Yrotation 
				JOINT Foot_R
				{
					OFFSET -40.9854 0.0 0.0
					CHANNELS 6 Xposition Yposition Zposition Zrotation Xrotation Yrotation 
					JOINT Toes_R
					{
						OFFSET -11.7543 0.0 0.0
						CHANNELS 6 Xposition Yposition Zposition Zrotation Xrotation Yrotation 
						End Site
						{
							OFFSET 0.0 0.0 0.0
						}
					}
				}
			}
		}
	}
}
MOTION
Frames:	8
Frame Time:	0.0333333
0.000000 0.000000 0.000000 0.000000 0.000000 -0.000000 -4.250150 82.453000 -2.822370 86.962100 1.404890 11.241700 15.735700 0.000005 -0.000001 82.464600 81.356300 -82.966200 8.984550 -0.406207 -0.000000 9.367660 -2.261290 -0.817138 16.377300 -0.000001 -0.000001 -2.723270 -3.555850 0.859799 6.456720 -0.000001 -0.000000 -6.484410 -1.675480 -1.592450 12.994200 -0.242716 4.980390 -90.987900 3.205060 -72.858500 5.348090 -0.000007 -0.000001 -61.894600 29.873500 -16.321900 24.328600 0.000019 0.000005 8.904820 18.009700 -26.875600 22.291600 -0.000001 0.000005 14.085800 5.209540 2.476280 12.994500 -0.242716 -4.980390 88.234600 8.847880 -78.669300 -5.348130 -0.000001 -0.000004 -60.713100 35.072000 -8.567110 -24.328900 0.000322 -0.000009 0.117182 0.261591 -24.648900 -22.291500 -0.000108 -0.000004 10.986500 5.407330 -3.042720 -2.192480 -6.469440 -0.000000 -169.531000 -8.797740 -17.191100 39.081100 -0.000007 -0.000012 -0.352993 0.186796 62.114200 40.985400 -0.000006 -0.000013 0.163843 8.318660 -83.545300 11.754300 -0.000000 0.000003 -0.000131 -0.001293 -16.626900 -2.192510 6.469440 -0.000001 -178.232000 16.938000 164.505000 -39.081100 -0.002282 -0.040193 0.110115 -0.059415 60.939400 -40.985400 0.000008 0.000006 9.130350 0.758631 -84.739200 -11.754300 -0.000006 -0.000006 -0.000653 -0.010343 -16.993900
0.000000 0.000000 0.000000 0.000000 0.000000 -0.000000 -4.780210 84.319400 -2.393560 87.115900 3.011090 10.729400 15.735700 0.000005 -0.000001 84.966700 82.070900 -86.512300 8.984550 -0.406207 -0.000000 8.015780 -1.388680 -2.990940 16.377300 -0.000001 -0.000001 -2.128400 -3.740310 0.635321 6.456720 -0.000001 -0.000000 -5.675450 -3.128370 -0.147004 12.994200 -0.242716 4.980390 -90.944300 2.942680 -72.200400 5.348090 -0.000007 -0.000001 -63.267300 27.344400 -16.234200 24.328600 0.000019 0.000005 7.999760 18.117000 -24.319500 22.291600 -0.000001 0.000005 14.245500 5.138560 4.214290 12.994500 -0.242716 -4.980390 88.526500 7.745270 -79.194400 -5.348130 -0.000001 -0.000004 -59.509100 39.859100 -10.055700 -24.328900 0.000322 -0.000009 2.485550 5.462950 -24.515500 -22.291500 -0.000108 -0.000004 -4.507550 5.340910 -1.082300 -2.192480 -6.469440 -0.000000 -169.686000 -7.783590 -15.013100 39.081100 -0.000007 -0.000012 -0.309141 0.204333 56.537400 40.985400 -0.000006 -0.000013 -0.307445 8.872520 -80.834800 11.754300 -0.000000 0.000003 -0.000104 -0.001063 -16.618300 -2.192510 6.469440 -0.000001 -178.177000 18.029900 167.068000 -39.081100 -0.002282 -0.040193 0.099586 -0.066371 55.441900 -40.985400 0.000008 0.000006 9.033750 0.790052 -82.199000 -11.754300 -0.000006 -0.000006 -0.204908 -0.255737 -17.038100
0.000000 0.000000 0.000000 0.000000 0.000000 -0.000000 -5.160260 86.886300 -1.933260 87.435200 3.669560 9.404030 15.735700 0.000005 -0.000001 88.265700 83.147100 -90.968400 8.984550 -0.406207 -0.000000 5.930630 -0.370572 -5.379950 16.377300 -0.000001 -0.000001 -0.731474 -3.744990 0.942134 6.456720 -0.000001 -0.000000 -4.785440 -3.868100 1.313820 12.994200 -0.242716 4.980390 -90.874100 2.558460 -71.128900 5.348090 -0.000007 -0.000001 -64.818700 24.310900 -14.108100 24.328600 0.000019 0.000005 7.528920 17.049200 -24.265200 22.291600 -0.000001 0.000005 13.560700 5.141320 4.148840 12.994500 -0.242716 -4.980390 88.876600 5.651510 -78.736700 -5.348130 -0.000001 -0.000004 -52.572800 40.458100 -15.436700 -24.328900 0.000322 -0.000009 2.230830 3.883680 -29.945600 -22.291500 -0.000108 -0.000004 -15.038700 5.300580 0.072146 -2.192480 -6.469440 -0.000000 -170.087000 -7.846450 -11.858200 39.081100 -0.000007 -0.000012 -0.237906 0.214371 47.979500 40.985400 -0.000006 -0.000013 -0.929290 9.255830 -76.740400 11.754300 -0.000000 0.000003 -0.000050 -0.000564 -16.599500 -2.192510 6.469440 -0.000001 -178.257000 19.098800 170.127000 -39.081100 -0.002282 -0.040193 0.080502 -0.071432 47.238800 -40.985400 0.000008 0.000006 9.186880 2.104920 -78.041300 -11.754300 -0.000006 -0.000006 -0.074953 -0.111939 -17.658700
0.000000 0.000000 0.000000 0.000000 0.000000 -0.000000 -5.190020 89.178100 -1.783700 87.704000 3.772550 7.360090 15.735700 0.000005 -0.000001 89.230100 84.470300 -92.870900 8.984550 -0.406207 -0.000000 3.302630 -0.006972 -7.273490 16.377300 -0.000001 -0.000001 1.073200 -3.424500 1.143450 6.456720 -0.000001 -0.000000 -3.651480 -3.721250 2.303230 12.994200 -0.242716 4.980390 -90.646200 1.764760 -69.883200 5.348090 -0.000007 -0.000001 -66.543800 21.291700 -10.034300 24.328600 0.000019 0.000005 7.960040 15.993600 -26.907400 22.291600 -0.000001 0.000005 11.924100 5.174230 3.352530 12.994500 -0.242716 -4.980390 89.280300 3.496570 -78.361400 -5.348130 -0.000001 -0.000004 -41.405700 32.525100 -23.359400 -24.328900 0.000322 -0.000009 2.076340 2.736360 -37.223000 -22.291500 -0.000108 -0.000004 -9.632940 5.306040 -0.064119 -2.192480 -6.469440 -0.000000 -170.736000 -8.652990 -9.347550 39.081100 -0.000007 -0.000012 -0.176412 0.217111 39.095800 40.985400 -0.000006 -0.000013 -1.379910 9.471850 -72.326900 11.754300 -0.000000 0.000003 -0.000022 -0.000272 -16.588200 -2.192510 6.469440 -0.000001 -178.439000 20.892600 172.276000 -39.081100 -0.002282 -0.040193 0.059673 -0.069806 38.932400 -40.985400 0.000008 0.000006 9.064160 4.995670 -73.401000 -11.754300 -0.000006 -0.000006 -0.222482 -0.293486 -18.301400
0.000000 0.000000 0.000000 0.000000 0.000000 -0.000000 -4.930070 90.616300 -1.800760 87.849300 3.359090 5.915060 15.735700 0.000005 -0.000001 90.343000 85.301600 -94.405900 8.984550 -0.406207 -0.000000 1.653180 0.272515 -8.122380 16.377300 -0.000001 -0.000001 2.083270 -3.223480 0.911355 6.456720 -0.000001 -0.000000 -2.878030 -3.519350 2.009660 12.994200 -0.242716 4.980390 -90.436100 1.134610 -68.973500 5.348090 -0.000007 -0.000001 -67.765900 19.319400 -6.237600 24.328600 0.000019 0.000005 8.346340 14.751700 -29.950300 22.291600 -0.000001 0.000005 10.131900 5.216530 2.298960 12.994500 -0.242716 -4.980390 89.707300 1.401920 -78.205300 -5.348130 -0.000001 -0.000004 -27.614800 18.414100 -32.105800 -24.328900 0.000322 -0.000009 2.669650 2.966960 -42.025200 -22.291500 -0.000108 -0.000004 3.541110 5.368330 -1.865290 -2.192480 -6.469440 -0.000000 -171.217000 -10.220300 -7.353930 39.081100 -0.000007 -0.000012 -0.138807 0.217892 32.499200 40.985400 -0.000006 -0.000013 -1.438340 10.015100 -69.041100 11.754300 -0.000000 0.000003 -0.000013 -0.000168 -16.584100 -2.192510 6.469440 -0.000001 -178.812000 22.777000 173.888000 -39.081100 -0.002282 -0.040193 0.044983 -0.064560 32.850800 -40.985400 0.000008 0.000006 8.882710 8.364990 -70.013900 -11.754300 -0.000006 -0.000006 -0.179324 -0.252279 -18.867700
0.000000 0.000000 0.000000 0.000000 0.000000 -0.000000 -4.755440 91.256200 -2.049230 87.744100 3.038650 4.842300 15.735700 0.000005 -0.000001 93.030500 85.643800 -97.064500 8.984550 -0.406207 -0.000000 0.971723 0.699199 -8.067390 16.377300 -0.000001 -0.000001 2.106180 -3.060740 0.347391 6.456720 -0.000001 -0.000000 -2.909900 -3.705580 1.397040 12.994200 -0.242716 4.980390 -90.454200 1.141970 -68.309500 5.348090 -0.000007 -0.000001 -67.607500 19.422100 -4.077900 24.328600 0.000019 0.000005 8.639940 14.079400 -31.989500 22.291600 -0.000001 0.000005 9.623400 5.241390 1.659090 12.994500 -0.242716 -4.980390 90.273500 -1.400950 -78.943300 -5.348130 -0.000001 -0.000004 -16.931500 -1.328310 -35.845300 -24.328900 0.000322 -0.000009 0.802279 0.872929 -42.596300 -22.291500 -0.000108 -0.000004 17.435100 5.432700 -3.967620 -2.192480 -6.469440 -0.000000 -171.308000 -11.917100 -6.919120 39.081100 -0.000007 -0.000012 -0.111628 0.198810 29.313600 40.985400 -0.000006 -0.000013 -1.274970 11.040200 -67.269800 11.754300 -0.000000 0.000003 -0.000010 -0.000133 -16.582800 -2.192510 6.469440 -0.000001 -178.554000 23.696900 174.522000 -39.081100 -0.002282 -0.040193 0.036721 -0.059885 29.162800 -40.985400 0.000008 0.000006 9.011900 10.084600 -68.696300 -11.754300 -0.000006 -0.000006 -0.004515 -0.056690 -18.879400
0.000000 0.000000 0.000000 0.000000 0.000000 -0.000000 -4.612510 91.427700 -2.321240 87.861900 3.375500 4.283540 15.735700 0.000005 -0.000001 96.725500 85.545900 -100.703000 8.984550 -0.406207 -0.000000 1.137710 1.272460 -7.960690 16.377300 -0.000001 -0.000001 1.502430 -3.359030 0.322703 6.456720 -0.000001 -0.000000 -3.591880 -3.871410 0.170294 12.994200 -0.242716 4.980390 -90.812000 1.992890 -67.827500 5.348090 -0.000007 -0.000001 -65.373800 20.968000 -3.530160 24.328600 0.000019 0.000005 9.490340 14.690900 -33.391300 22.291600 -0.000001 0.000005 10.075300 5.231220 1.923420 12.994500 -0.242716 -4.980390 90.978800 -5.241930 -79.408000 -5.348130 -0.000001 -0.000004 -12.899600 -25.640900 -36.806900 -24.328900 0.000322 -0.000009 -4.653080 -5.499600 -40.340300 -22.291500 -0.000108 -0.000004 17.875100 5.507060 -6.852870 -2.192480 -6.469440 -0.000000 -171.601000 -12.882900 -7.299540 39.081100 -0.000007 -0.000012 -0.093714 0.173018 28.442000 40.985400 -0.000006 -0.000013 -0.975872 12.085800 -66.586000 11.754300 -0.000000 0.000003 -0.000010 -0.000140 -16.583000 -2.192510 6.469440 -0.000001 -178.542000 24.673200 174.834000 -39.081100 -0.002282 -0.040193 0.032977 -0.057389 27.338400 -40.985400 0.000008 0.000006 9.468170 10.588900 -69.063000 -11.754300 -0.000006 -0.000006 -0.003908 -0.050482 -18.626500
0.000000 0.000000 0.000000 0.000000 0.000000 -0.000000 -4.589580 91.507700 -2.677330 88.151800 4.478610 3.634850 15.735700 0.000005 -0.000001 98.094500 85.375800 -102.068000 8.984550 -0.406207 -0.000000 1.455800 1.519980 -7.960080 16.377300 -0.000001 -0.000001 0.987000 -4.269360 1.469910 6.456720 -0.000001 -0.000000 -4.547430 -3.590320 -2.236030 12.994200 -0.242716 4.980390 -91.495400 3.676080 -67.845500 5.348090 -0.000007 -0.000001 -61.850400 21.474700 -3.449660 24.328600 0.000019 0.000005 10.813600 16.157000 -34.465700 22.291600 -0.000001 0.000005 10.815700 5.221050 2.184710 12.994500 -0.242716 -4.980390 92.037400 -9.532300 -77.879800 -5.348130 -0.000001 -0.000004 -15.579500 -48.028300 -42.723900 -24.328900 0.000322 -0.000009 -2.993890 -3.871780 -37.747700 -22.291500 -0.000108 -0.000004 19.953500 5.554850 -8.893290 -2.192480 -6.469440 -0.000000 -172.121000 -13.317200 -8.203330 39.081100 -0.000007 -0.000012 -0.074581 0.140470 27.965700 40.985400 -0.000006 -0.000013 -0.658719 13.396800 -65.956200 11.754300 -0.000000 0.000003 -0.000009 -0.000128 -16.582600 -2.192510 6.469440 -0.000001 -178.513000 25.660300 174.331000 -39.081100 -0.002282 -0.040193 0.030496 -0.054247 26.618800 -40.985400 0.000008 0.000006 9.543790 10.458900 -69.157400 -11.754300 -0.000006 -0.000006 -0.003370 -0.044717 -18.391800
